<svg width="367" height="114" viewBox="0 0 367 114" fill="none" xmlns="http://www.w3.org/2000/svg">
<path d="M54.6001 113.25C84.4235 113.25 108.6 89.0734 108.6 59.25C108.6 29.4266 84.4235 5.25 54.6001 5.25C24.7767 5.25 0.600098 29.4266 0.600098 59.25C0.600098 89.0734 24.7767 113.25 54.6001 113.25Z" fill="url(#paint0_linear_2225_302)"/>
<path opacity="0.5" d="M54.6001 113.25C84.4235 113.25 108.6 89.0734 108.6 59.25C108.6 29.4266 84.4235 5.25 54.6001 5.25C24.7767 5.25 0.600098 29.4266 0.600098 59.25C0.600098 89.0734 24.7767 113.25 54.6001 113.25Z" stroke="#00C2B5" stroke-width="1.2"/>
<g opacity="0.12">
<path d="M54.6001 49.25C58.4661 49.25 61.6001 43.8774 61.6001 37.25C61.6001 30.6226 58.4661 25.25 54.6001 25.25C50.7341 25.25 47.6001 30.6226 47.6001 37.25C47.6001 43.8774 50.7341 49.25 54.6001 49.25Z" fill="#00C2B5"/>
<path d="M63.2603 54.2497C65.1933 57.5977 71.4131 57.6256 77.1526 54.3119C82.8921 50.9981 85.9779 45.5977 84.0449 42.2497C82.1119 38.9016 75.8921 38.8738 70.1526 42.1875C64.4131 45.5012 61.3273 50.9016 63.2603 54.2497Z" fill="#00C2B5"/>
<path d="M63.2603 64.2497C61.3273 67.5977 64.4131 72.9981 70.1526 76.3119C75.8921 79.6256 82.1119 79.5977 84.0449 76.2497C85.9779 72.9016 82.8921 67.5012 77.1526 64.1875C71.4131 60.8738 65.1933 60.9016 63.2603 64.2497Z" fill="#00C2B5"/>
<path d="M54.6001 69.25C50.7341 69.25 47.6001 74.6226 47.6001 81.25C47.6001 87.8774 50.7341 93.25 54.6001 93.25C58.4661 93.25 61.6001 87.8774 61.6001 81.25C61.6001 74.6226 58.4661 69.25 54.6001 69.25Z" fill="#00C2B5"/>
<path d="M45.9399 64.2503C44.0069 60.9023 37.7871 60.8744 32.0476 64.1881C26.3081 67.5019 23.2223 72.9023 25.1553 76.2503C27.0883 79.5984 33.3081 79.6262 39.0476 76.3125C44.7871 72.9988 47.8729 67.5984 45.9399 64.2503Z" fill="#00C2B5"/>
<path d="M45.9399 54.2503C47.8729 50.9023 44.7871 45.5019 39.0476 42.1881C33.3081 38.8744 27.0883 38.9023 25.1553 42.2503C23.2223 45.5984 26.3081 50.9988 32.0476 54.3125C37.7871 57.6262 44.0069 57.5984 45.9399 54.2503Z" fill="#00C2B5"/>
</g>
<path opacity="0.18" d="M54.6001 63.25C56.8092 63.25 58.6001 61.4591 58.6001 59.25C58.6001 57.0409 56.8092 55.25 54.6001 55.25C52.391 55.25 50.6001 57.0409 50.6001 59.25C50.6001 61.4591 52.391 63.25 54.6001 63.25Z" fill="#00C2B5"/>
<path opacity="0.92" d="M69.6001 53.25H39.6001C37.9432 53.25 36.6001 54.5931 36.6001 56.25V62.25C36.6001 63.9069 37.9432 65.25 39.6001 65.25H69.6001C71.257 65.25 72.6001 63.9069 72.6001 62.25V56.25C72.6001 54.5931 71.257 53.25 69.6001 53.25Z" fill="url(#paint1_linear_2225_302)"/>
<path opacity="0.92" d="M57.6001 41.25H51.6001C49.9432 41.25 48.6001 42.5931 48.6001 44.25V74.25C48.6001 75.9069 49.9432 77.25 51.6001 77.25H57.6001C59.257 77.25 60.6001 75.9069 60.6001 74.25V44.25C60.6001 42.5931 59.257 41.25 57.6001 41.25Z" fill="url(#paint2_linear_2225_302)"/>
<path opacity="0.6" d="M58.6001 53.25H50.6001C49.4955 53.25 48.6001 54.1454 48.6001 55.25V63.25C48.6001 64.3546 49.4955 65.25 50.6001 65.25H58.6001C59.7047 65.25 60.6001 64.3546 60.6001 63.25V55.25C60.6001 54.1454 59.7047 53.25 58.6001 53.25Z" fill="#2DD4BF"/>
<g opacity="0.95" filter="url(#filter0_f_2225_302)">
<path d="M54.6001 39.75C57.0854 39.75 59.1001 37.7353 59.1001 35.25C59.1001 32.7647 57.0854 30.75 54.6001 30.75C52.1148 30.75 50.1001 32.7647 50.1001 35.25C50.1001 37.7353 52.1148 39.75 54.6001 39.75Z" fill="#F4B942"/>
</g>
<g opacity="0.95" filter="url(#filter1_f_2225_302)">
<path d="M78.6001 63.75C81.0854 63.75 83.1001 61.7353 83.1001 59.25C83.1001 56.7647 81.0854 54.75 78.6001 54.75C76.1148 54.75 74.1001 56.7647 74.1001 59.25C74.1001 61.7353 76.1148 63.75 78.6001 63.75Z" fill="#F4B942"/>
</g>
<g opacity="0.95" filter="url(#filter2_f_2225_302)">
<path d="M54.6001 87.75C57.0854 87.75 59.1001 85.7353 59.1001 83.25C59.1001 80.7647 57.0854 78.75 54.6001 78.75C52.1148 78.75 50.1001 80.7647 50.1001 83.25C50.1001 85.7353 52.1148 87.75 54.6001 87.75Z" fill="#F4B942"/>
</g>
<g opacity="0.95" filter="url(#filter3_f_2225_302)">
<path d="M30.6001 63.75C33.0854 63.75 35.1001 61.7353 35.1001 59.25C35.1001 56.7647 33.0854 54.75 30.6001 54.75C28.1148 54.75 26.1001 56.7647 26.1001 59.25C26.1001 61.7353 28.1148 63.75 30.6001 63.75Z" fill="#F4B942"/>
</g>
<path opacity="0.7" d="M34.6001 42.25C36.257 42.25 37.6001 40.9069 37.6001 39.25C37.6001 37.5931 36.257 36.25 34.6001 36.25C32.9432 36.25 31.6001 37.5931 31.6001 39.25C31.6001 40.9069 32.9432 42.25 34.6001 42.25Z" fill="#00C2B5"/>
<path opacity="0.7" d="M74.6001 42.25C76.257 42.25 77.6001 40.9069 77.6001 39.25C77.6001 37.5931 76.257 36.25 74.6001 36.25C72.9432 36.25 71.6001 37.5931 71.6001 39.25C71.6001 40.9069 72.9432 42.25 74.6001 42.25Z" fill="#00C2B5"/>
<path opacity="0.7" d="M74.6001 82.25C76.257 82.25 77.6001 80.9069 77.6001 79.25C77.6001 77.5931 76.257 76.25 74.6001 76.25C72.9432 76.25 71.6001 77.5931 71.6001 79.25C71.6001 80.9069 72.9432 82.25 74.6001 82.25Z" fill="#00C2B5"/>
<path opacity="0.7" d="M34.6001 82.25C36.257 82.25 37.6001 80.9069 37.6001 79.25C37.6001 77.5931 36.257 76.25 34.6001 76.25C32.9432 76.25 31.6001 77.5931 31.6001 79.25C31.6001 80.9069 32.9432 82.25 34.6001 82.25Z" fill="#00C2B5"/>
<g opacity="0.35">
<path d="M54.6001 35.25L34.6001 39.25" stroke="#00C2B5" stroke-width="0.8"/>
<path d="M54.6001 35.25L74.6001 39.25" stroke="#00C2B5" stroke-width="0.8"/>
<path d="M78.6001 59.25L74.6001 39.25" stroke="#00C2B5" stroke-width="0.8"/>
<path d="M78.6001 59.25L74.6001 79.25" stroke="#00C2B5" stroke-width="0.8"/>
<path d="M54.6001 83.25L74.6001 79.25" stroke="#00C2B5" stroke-width="0.8"/>
<path d="M54.6001 83.25L34.6001 79.25" stroke="#00C2B5" stroke-width="0.8"/>
<path d="M30.6001 59.25L34.6001 79.25" stroke="#00C2B5" stroke-width="0.8"/>
<path d="M30.6001 59.25L34.6001 39.25" stroke="#00C2B5" stroke-width="0.8"/>
</g>
<g opacity="0.75">
<path d="M73.6001 25.25C69.6001 17.25 65.6001 15.25 65.6001 10.25C65.6001 4.25 70.6001 0.25 73.6001 0.25C76.6001 0.25 81.6001 4.25 81.6001 10.25C81.6001 15.25 77.6001 17.25 73.6001 25.25Z" fill="#F4B942" stroke="#0A1628" stroke-width="0.5"/>
<path d="M73.6001 13.75C75.5331 13.75 77.1001 12.183 77.1001 10.25C77.1001 8.317 75.5331 6.75 73.6001 6.75C71.6671 6.75 70.1001 8.317 70.1001 10.25C70.1001 12.183 71.6671 13.75 73.6001 13.75Z" fill="#0A1628"/>
</g>
<path d="M140.12 52.7598H130.545L129.228 57.25H120.637L130.861 30.0488H140.027L150.25 57.25H141.456L140.12 52.7598ZM138.357 46.8779L135.351 37.0996L132.364 46.8779H138.357ZM169.362 30.0488H177.749V46.2656C177.749 47.8737 177.495 49.3952 176.988 50.8301C176.493 52.2526 175.708 53.502 174.631 54.5781C173.568 55.6419 172.448 56.3903 171.273 56.8232C169.64 57.4294 167.68 57.7324 165.391 57.7324C164.068 57.7324 162.62 57.6396 161.049 57.4541C159.491 57.2686 158.186 56.9036 157.134 56.3594C156.083 55.8027 155.118 55.0173 154.24 54.0029C153.374 52.9886 152.78 51.9434 152.458 50.8672C151.939 49.1354 151.679 47.6016 151.679 46.2656V30.0488H160.066V46.6553C160.066 48.1396 160.474 49.3024 161.291 50.1436C162.119 50.9723 163.264 51.3867 164.723 51.3867C166.17 51.3867 167.302 50.9785 168.119 50.1621C168.947 49.3333 169.362 48.1644 169.362 46.6553V30.0488ZM183.426 57.25V30.0488H197.435C200.033 30.0488 202.018 30.2715 203.391 30.7168C204.764 31.1621 205.871 31.9909 206.712 33.2031C207.554 34.403 207.974 35.8688 207.974 37.6006C207.974 39.1097 207.653 40.4147 207.009 41.5156C206.366 42.6042 205.482 43.4886 204.356 44.1689C203.639 44.6019 202.655 44.9606 201.406 45.2451C202.408 45.5791 203.138 45.9131 203.595 46.2471C203.904 46.4697 204.35 46.946 204.931 47.6758C205.525 48.4056 205.921 48.9684 206.119 49.3643L210.182 57.25H200.682L196.192 48.9375C195.623 47.8613 195.116 47.1624 194.67 46.8408C194.064 46.4202 193.378 46.21 192.611 46.21H191.869V57.25H183.426ZM191.869 41.0703H195.413C195.796 41.0703 196.538 40.9466 197.639 40.6992C198.196 40.5879 198.647 40.3034 198.994 39.8457C199.352 39.388 199.532 38.8623 199.532 38.2686C199.532 37.3903 199.253 36.7161 198.697 36.2461C198.14 35.776 197.095 35.541 195.561 35.541H191.869V41.0703ZM229.627 52.7598H220.053L218.736 57.25H210.145L220.369 30.0488H229.535L239.758 57.25H230.963L229.627 52.7598ZM227.865 46.8779L224.859 37.0996L221.872 46.8779H227.865Z" fill="white"/>
<path d="M123.291 67.0488H134.349L138.617 83.5996L142.866 67.0488H153.887V94.25H147.022V73.5059L141.697 94.25H135.481L130.174 73.5059V94.25H123.291V67.0488ZM159.25 67.0488H181.775V72.8564H167.673V77.1797H180.754V82.7275H167.673V88.0898H182.183V94.25H159.25V67.0488ZM186.84 67.0488H199.328C201.789 67.0488 203.775 67.3828 205.284 68.0508C206.805 68.7188 208.061 69.6774 209.05 70.9268C210.04 72.1761 210.757 73.6296 211.203 75.2871C211.648 76.9447 211.871 78.7012 211.871 80.5566C211.871 83.4635 211.537 85.721 210.869 87.3291C210.213 88.9248 209.298 90.2669 208.123 91.3555C206.947 92.4316 205.686 93.1491 204.337 93.5078C202.494 94.0026 200.824 94.25 199.328 94.25H186.84V67.0488ZM195.246 73.209V88.0713H197.305C199.062 88.0713 200.311 87.8796 201.053 87.4961C201.795 87.1003 202.377 86.4199 202.797 85.4551C203.218 84.4779 203.428 82.9007 203.428 80.7236C203.428 77.8415 202.958 75.8685 202.018 74.8047C201.078 73.7409 199.519 73.209 197.342 73.209H195.246Z" fill="#00C2B5"/>
<path opacity="0.4" d="M120.6 62.25H366.6" stroke="#00C2B5" stroke-width="0.8"/>
<path d="M122.333 106.25V99.0918H123.28V105.405H126.805V106.25H122.333ZM127.65 102.764C127.65 101.576 127.969 100.646 128.607 99.9756C129.245 99.3018 130.069 98.9648 131.078 98.9648C131.738 98.9648 132.334 99.1227 132.865 99.4385C133.395 99.7542 133.799 100.195 134.076 100.762C134.356 101.325 134.496 101.965 134.496 102.681C134.496 103.407 134.349 104.056 134.056 104.629C133.763 105.202 133.348 105.636 132.811 105.933C132.274 106.226 131.694 106.372 131.073 106.372C130.399 106.372 129.797 106.209 129.266 105.884C128.736 105.558 128.333 105.114 128.06 104.551C127.787 103.988 127.65 103.392 127.65 102.764ZM128.626 102.778C128.626 103.641 128.858 104.321 129.32 104.819C129.785 105.314 130.368 105.562 131.068 105.562C131.781 105.562 132.367 105.311 132.826 104.81C133.288 104.308 133.519 103.597 133.519 102.676C133.519 102.093 133.42 101.585 133.221 101.152C133.026 100.716 132.738 100.379 132.357 100.142C131.979 99.9007 131.555 99.7803 131.083 99.7803C130.412 99.7803 129.834 100.011 129.349 100.474C128.867 100.933 128.626 101.701 128.626 102.778ZM135.692 106.25V99.0918H137.118L138.812 104.16C138.968 104.632 139.082 104.985 139.154 105.22C139.235 104.959 139.362 104.577 139.535 104.072L141.249 99.0918H142.523V106.25H141.61V100.259L139.53 106.25H138.675L136.605 100.156V106.25H135.692ZM144.012 106.25V99.0918H146.698C147.245 99.0918 147.682 99.165 148.011 99.3115C148.343 99.4548 148.602 99.6777 148.788 99.9805C148.976 100.28 149.071 100.594 149.071 100.923C149.071 101.229 148.988 101.517 148.822 101.787C148.656 102.057 148.405 102.275 148.07 102.441C148.503 102.568 148.835 102.785 149.066 103.091C149.3 103.397 149.417 103.758 149.417 104.175C149.417 104.51 149.346 104.823 149.203 105.112C149.063 105.399 148.889 105.62 148.68 105.776C148.472 105.933 148.21 106.051 147.894 106.133C147.582 106.211 147.197 106.25 146.742 106.25H144.012ZM144.959 102.1H146.507C146.927 102.1 147.228 102.072 147.411 102.017C147.652 101.945 147.832 101.826 147.953 101.66C148.076 101.494 148.138 101.286 148.138 101.035C148.138 100.798 148.081 100.589 147.967 100.41C147.853 100.228 147.691 100.104 147.479 100.039C147.267 99.9707 146.904 99.9365 146.39 99.9365H144.959V102.1ZM144.959 105.405H146.742C147.048 105.405 147.263 105.394 147.386 105.371C147.604 105.332 147.787 105.267 147.933 105.176C148.08 105.085 148.2 104.953 148.294 104.78C148.389 104.604 148.436 104.403 148.436 104.175C148.436 103.908 148.368 103.677 148.231 103.481C148.094 103.283 147.904 103.145 147.66 103.066C147.419 102.985 147.07 102.944 146.615 102.944H144.959V105.405ZM149.935 106.25L152.684 99.0918H153.705L156.634 106.25H155.555L154.72 104.082H151.727L150.941 106.25H149.935ZM152 103.311H154.427L153.68 101.328C153.452 100.726 153.283 100.231 153.172 99.8438C153.081 100.303 152.953 100.758 152.787 101.211L152 103.311ZM157.406 106.25V99.0918H160.58C161.218 99.0918 161.703 99.1569 162.035 99.2871C162.367 99.4141 162.632 99.6403 162.831 99.9658C163.029 100.291 163.128 100.651 163.128 101.045C163.128 101.553 162.964 101.981 162.635 102.329C162.306 102.677 161.799 102.899 161.112 102.993C161.362 103.114 161.553 103.232 161.683 103.35C161.96 103.604 162.222 103.921 162.469 104.302L163.714 106.25H162.523L161.576 104.761C161.299 104.331 161.071 104.002 160.892 103.774C160.713 103.547 160.552 103.387 160.409 103.296C160.269 103.205 160.125 103.141 159.979 103.105C159.872 103.083 159.696 103.071 159.452 103.071H158.353V106.25H157.406ZM158.353 102.251H160.389C160.822 102.251 161.161 102.207 161.405 102.119C161.649 102.028 161.834 101.885 161.961 101.689C162.088 101.491 162.152 101.276 162.152 101.045C162.152 100.706 162.028 100.428 161.781 100.21C161.537 99.9919 161.149 99.8828 160.619 99.8828H158.353V102.251ZM164.618 106.25V99.0918H167.083C167.64 99.0918 168.065 99.126 168.358 99.1943C168.768 99.2887 169.118 99.4596 169.408 99.707C169.785 100.026 170.067 100.435 170.252 100.933C170.441 101.427 170.536 101.994 170.536 102.632C170.536 103.175 170.472 103.657 170.345 104.077C170.218 104.497 170.056 104.845 169.857 105.122C169.658 105.396 169.44 105.612 169.203 105.771C168.968 105.928 168.683 106.047 168.348 106.128C168.016 106.209 167.634 106.25 167.201 106.25H164.618ZM165.565 105.405H167.093C167.565 105.405 167.935 105.361 168.202 105.273C168.472 105.186 168.687 105.062 168.846 104.902C169.071 104.678 169.245 104.377 169.369 103.999C169.496 103.618 169.559 103.158 169.559 102.617C169.559 101.868 169.435 101.294 169.188 100.894C168.944 100.49 168.646 100.22 168.294 100.083C168.041 99.9854 167.632 99.9365 167.069 99.9365H165.565V105.405ZM172.235 103.14V102.139H173.236V103.14H172.235ZM175.086 106.25V99.0918H176.532V106.25H175.086ZM184.369 106.25H182.796L182.171 104.624H179.31L178.719 106.25H177.186L179.974 99.0918H181.502L184.369 106.25ZM181.708 103.418L180.721 100.762L179.754 103.418H181.708ZM187.274 103.95L188.167 103.872C188.21 104.23 188.307 104.525 188.46 104.756C188.617 104.984 188.858 105.169 189.183 105.312C189.509 105.452 189.875 105.522 190.282 105.522C190.643 105.522 190.962 105.469 191.239 105.361C191.515 105.254 191.721 105.107 191.854 104.922C191.991 104.733 192.059 104.528 192.059 104.307C192.059 104.082 191.994 103.887 191.864 103.721C191.734 103.551 191.519 103.41 191.219 103.296C191.027 103.221 190.602 103.105 189.945 102.949C189.287 102.79 188.827 102.64 188.563 102.5C188.221 102.321 187.966 102.1 187.796 101.836C187.63 101.569 187.547 101.271 187.547 100.942C187.547 100.581 187.65 100.244 187.855 99.9316C188.06 99.6159 188.36 99.3766 188.753 99.2139C189.147 99.0511 189.585 98.9697 190.067 98.9697C190.597 98.9697 191.065 99.056 191.468 99.2285C191.875 99.3978 192.188 99.6484 192.406 99.9805C192.624 100.312 192.741 100.688 192.757 101.108L191.849 101.177C191.8 100.724 191.634 100.382 191.351 100.151C191.071 99.9202 190.656 99.8047 190.106 99.8047C189.533 99.8047 189.115 99.9105 188.851 100.122C188.591 100.33 188.46 100.583 188.46 100.879C188.46 101.136 188.553 101.348 188.739 101.514C188.921 101.68 189.396 101.851 190.165 102.026C190.936 102.199 191.465 102.35 191.751 102.48C192.168 102.673 192.476 102.917 192.674 103.213C192.873 103.506 192.972 103.844 192.972 104.229C192.972 104.609 192.863 104.969 192.645 105.308C192.427 105.643 192.113 105.905 191.703 106.094C191.296 106.279 190.837 106.372 190.326 106.372C189.678 106.372 189.134 106.278 188.695 106.089C188.259 105.9 187.915 105.617 187.665 105.239C187.417 104.858 187.287 104.429 187.274 103.95ZM193.48 106.25L196.229 99.0918H197.25L200.179 106.25H199.1L198.265 104.082H195.272L194.486 106.25H193.48ZM195.545 103.311H197.972L197.225 101.328C196.997 100.726 196.828 100.231 196.717 99.8438C196.626 100.303 196.498 100.758 196.332 101.211L195.545 103.311ZM200.926 106.25V99.0918H201.898L205.658 104.712V99.0918H206.566V106.25H205.594L201.834 100.625V106.25H200.926ZM208.324 106.25V99.0918H209.271V106.25H208.324ZM212.767 106.25V99.9365H210.409V99.0918H216.083V99.9365H213.714V106.25H212.767ZM215.531 106.25L218.28 99.0918H219.3L222.23 106.25H221.151L220.316 104.082H217.323L216.537 106.25H215.531ZM217.596 103.311H220.023L219.276 101.328C219.048 100.726 218.879 100.231 218.768 99.8438C218.677 100.303 218.548 100.758 218.382 101.211L217.596 103.311ZM223.001 106.25V99.0918H226.175C226.813 99.0918 227.298 99.1569 227.63 99.2871C227.962 99.4141 228.228 99.6403 228.426 99.9658C228.625 100.291 228.724 100.651 228.724 101.045C228.724 101.553 228.56 101.981 228.231 102.329C227.902 102.677 227.394 102.899 226.708 102.993C226.958 103.114 227.149 103.232 227.279 103.35C227.556 103.604 227.818 103.921 228.065 104.302L229.31 106.25H228.119L227.171 104.761C226.895 104.331 226.667 104.002 226.488 103.774C226.309 103.547 226.148 103.387 226.004 103.296C225.864 103.205 225.721 103.141 225.575 103.105C225.467 103.083 225.292 103.071 225.047 103.071H223.949V106.25H223.001ZM223.949 102.251H225.985C226.418 102.251 226.756 102.207 227 102.119C227.245 102.028 227.43 101.885 227.557 101.689C227.684 101.491 227.748 101.276 227.748 101.045C227.748 100.706 227.624 100.428 227.376 100.21C227.132 99.9919 226.745 99.8828 226.214 99.8828H223.949V102.251ZM230.375 106.25V99.0918H231.322V106.25H230.375ZM232.21 106.25L234.959 99.0918H235.98L238.91 106.25H237.831L236.996 104.082H234.002L233.216 106.25H232.21ZM234.276 103.311H236.703L235.956 101.328C235.728 100.726 235.558 100.231 235.448 99.8438C235.357 100.303 235.228 100.758 235.062 101.211L234.276 103.311Z" fill="#6B8FA8"/>
<defs>
<filter id="filter0_f_2225_302" x="46.1001" y="26.75" width="17" height="17" filterUnits="userSpaceOnUse" color-interpolation-filters="sRGB">
<feFlood flood-opacity="0" result="BackgroundImageFix"/>
<feBlend mode="normal" in="SourceGraphic" in2="BackgroundImageFix" result="shape"/>
<feGaussianBlur stdDeviation="2" result="effect1_foregroundBlur_2225_302"/>
</filter>
<filter id="filter1_f_2225_302" x="70.1001" y="50.75" width="17" height="17" filterUnits="userSpaceOnUse" color-interpolation-filters="sRGB">
<feFlood flood-opacity="0" result="BackgroundImageFix"/>
<feBlend mode="normal" in="SourceGraphic" in2="BackgroundImageFix" result="shape"/>
<feGaussianBlur stdDeviation="2" result="effect1_foregroundBlur_2225_302"/>
</filter>
<filter id="filter2_f_2225_302" x="46.1001" y="74.75" width="17" height="17" filterUnits="userSpaceOnUse" color-interpolation-filters="sRGB">
<feFlood flood-opacity="0" result="BackgroundImageFix"/>
<feBlend mode="normal" in="SourceGraphic" in2="BackgroundImageFix" result="shape"/>
<feGaussianBlur stdDeviation="2" result="effect1_foregroundBlur_2225_302"/>
</filter>
<filter id="filter3_f_2225_302" x="22.1001" y="50.75" width="17" height="17" filterUnits="userSpaceOnUse" color-interpolation-filters="sRGB">
<feFlood flood-opacity="0" result="BackgroundImageFix"/>
<feBlend mode="normal" in="SourceGraphic" in2="BackgroundImageFix" result="shape"/>
<feGaussianBlur stdDeviation="2" result="effect1_foregroundBlur_2225_302"/>
</filter>
<linearGradient id="paint0_linear_2225_302" x1="0.600098" y1="5.25" x2="108.6" y2="113.25" gradientUnits="userSpaceOnUse">
<stop stop-color="#0A1628"/>
<stop offset="1" stop-color="#0D2040"/>
</linearGradient>
<linearGradient id="paint1_linear_2225_302" x1="36.6001" y1="53.25" x2="43.8001" y2="74.85" gradientUnits="userSpaceOnUse">
<stop stop-color="#00C2B5"/>
<stop offset="1" stop-color="#009E94"/>
</linearGradient>
<linearGradient id="paint2_linear_2225_302" x1="48.6001" y1="41.25" x2="70.2001" y2="48.45" gradientUnits="userSpaceOnUse">
<stop stop-color="#00C2B5"/>
<stop offset="1" stop-color="#009E94"/>
</linearGradient>
</defs>
</svg>
