<svg width="367" height="115" viewBox="0 0 367 115" fill="none" xmlns="http://www.w3.org/2000/svg">
<path d="M54.75 113.4C84.5734 113.4 108.75 89.2238 108.75 59.4004C108.75 29.577 84.5734 5.40039 54.75 5.40039C24.9266 5.40039 0.75 29.577 0.75 59.4004C0.75 89.2238 24.9266 113.4 54.75 113.4Z" fill="url(#paint0_linear_2225_263)"/>
<path opacity="0.4" d="M54.75 113.4C84.5734 113.4 108.75 89.2238 108.75 59.4004C108.75 29.577 84.5734 5.40039 54.75 5.40039C24.9266 5.40039 0.75 29.577 0.75 59.4004C0.75 89.2238 24.9266 113.4 54.75 113.4Z" stroke="#00C2B5" stroke-width="1.5"/>
<g opacity="0.1">
<path d="M54.75 49.4004C58.616 49.4004 61.75 44.0278 61.75 37.4004C61.75 30.773 58.616 25.4004 54.75 25.4004C50.884 25.4004 47.75 30.773 47.75 37.4004C47.75 44.0278 50.884 49.4004 54.75 49.4004Z" fill="#009E94"/>
<path d="M63.4102 54.4001C65.3432 57.7481 71.563 57.776 77.3025 54.4622C83.042 51.1485 86.1278 45.7481 84.1948 42.4001C82.2618 39.052 76.042 39.0242 70.3025 42.3379C64.563 45.6516 61.4772 51.052 63.4102 54.4001Z" fill="#009E94"/>
<path d="M63.4102 64.4001C61.4772 67.7481 64.563 73.1485 70.3025 76.4622C76.042 79.776 82.2618 79.7481 84.1948 76.4001C86.1278 73.052 83.042 67.6516 77.3025 64.3379C71.563 61.0242 65.3432 61.052 63.4102 64.4001Z" fill="#009E94"/>
<path d="M54.75 69.4004C50.884 69.4004 47.75 74.773 47.75 81.4004C47.75 88.0278 50.884 93.4004 54.75 93.4004C58.616 93.4004 61.75 88.0278 61.75 81.4004C61.75 74.773 58.616 69.4004 54.75 69.4004Z" fill="#009E94"/>
<path d="M46.0898 64.4007C44.1568 61.0527 37.937 61.0248 32.1975 64.3385C26.458 67.6522 23.3722 73.0527 25.3052 76.4007C27.2382 79.7488 33.458 79.7766 39.1975 76.4629C44.937 73.1492 48.0228 67.7488 46.0898 64.4007Z" fill="#009E94"/>
<path d="M46.0898 54.4007C48.0228 51.0527 44.937 45.6522 39.1975 42.3385C33.458 39.0248 27.2382 39.0527 25.3052 42.4007C23.3722 45.7488 26.458 51.1492 32.1975 54.4629C37.937 57.7766 44.1568 57.7488 46.0898 54.4007Z" fill="#009E94"/>
</g>
<path opacity="0.15" d="M54.75 63.4004C56.9591 63.4004 58.75 61.6095 58.75 59.4004C58.75 57.1913 56.9591 55.4004 54.75 55.4004C52.5409 55.4004 50.75 57.1913 50.75 59.4004C50.75 61.6095 52.5409 63.4004 54.75 63.4004Z" fill="#009E94"/>
<path d="M69.75 53.4004H39.75C38.0931 53.4004 36.75 54.7435 36.75 56.4004V62.4004C36.75 64.0572 38.0931 65.4004 39.75 65.4004H69.75C71.4069 65.4004 72.75 64.0572 72.75 62.4004V56.4004C72.75 54.7435 71.4069 53.4004 69.75 53.4004Z" fill="url(#paint1_linear_2225_263)"/>
<path d="M57.75 41.4004H51.75C50.0931 41.4004 48.75 42.7435 48.75 44.4004V74.4004C48.75 76.0572 50.0931 77.4004 51.75 77.4004H57.75C59.4069 77.4004 60.75 76.0572 60.75 74.4004V44.4004C60.75 42.7435 59.4069 41.4004 57.75 41.4004Z" fill="url(#paint2_linear_2225_263)"/>
<path opacity="0.5" d="M58.75 53.4004H50.75C49.6454 53.4004 48.75 54.2958 48.75 55.4004V63.4004C48.75 64.505 49.6454 65.4004 50.75 65.4004H58.75C59.8546 65.4004 60.75 64.505 60.75 63.4004V55.4004C60.75 54.2958 59.8546 53.4004 58.75 53.4004Z" fill="#00C2B5"/>
<g opacity="0.85" filter="url(#filter0_f_2225_263)">
<path d="M54.75 39.9004C57.2353 39.9004 59.25 37.8857 59.25 35.4004C59.25 32.9151 57.2353 30.9004 54.75 30.9004C52.2647 30.9004 50.25 32.9151 50.25 35.4004C50.25 37.8857 52.2647 39.9004 54.75 39.9004Z" fill="#0A1628"/>
</g>
<g opacity="0.85" filter="url(#filter1_f_2225_263)">
<path d="M78.75 63.9004C81.2353 63.9004 83.25 61.8857 83.25 59.4004C83.25 56.9151 81.2353 54.9004 78.75 54.9004C76.2647 54.9004 74.25 56.9151 74.25 59.4004C74.25 61.8857 76.2647 63.9004 78.75 63.9004Z" fill="#0A1628"/>
</g>
<g opacity="0.85" filter="url(#filter2_f_2225_263)">
<path d="M54.75 87.9004C57.2353 87.9004 59.25 85.8857 59.25 83.4004C59.25 80.9151 57.2353 78.9004 54.75 78.9004C52.2647 78.9004 50.25 80.9151 50.25 83.4004C50.25 85.8857 52.2647 87.9004 54.75 87.9004Z" fill="#0A1628"/>
</g>
<g opacity="0.85" filter="url(#filter3_f_2225_263)">
<path d="M30.75 63.9004C33.2353 63.9004 35.25 61.8857 35.25 59.4004C35.25 56.9151 33.2353 54.9004 30.75 54.9004C28.2647 54.9004 26.25 56.9151 26.25 59.4004C26.25 61.8857 28.2647 63.9004 30.75 63.9004Z" fill="#0A1628"/>
</g>
<path opacity="0.65" d="M34.75 42.4004C36.4069 42.4004 37.75 41.0572 37.75 39.4004C37.75 37.7435 36.4069 36.4004 34.75 36.4004C33.0931 36.4004 31.75 37.7435 31.75 39.4004C31.75 41.0572 33.0931 42.4004 34.75 42.4004Z" fill="#009E94"/>
<path opacity="0.65" d="M74.75 42.4004C76.4069 42.4004 77.75 41.0572 77.75 39.4004C77.75 37.7435 76.4069 36.4004 74.75 36.4004C73.0931 36.4004 71.75 37.7435 71.75 39.4004C71.75 41.0572 73.0931 42.4004 74.75 42.4004Z" fill="#009E94"/>
<path opacity="0.65" d="M74.75 82.4004C76.4069 82.4004 77.75 81.0572 77.75 79.4004C77.75 77.7435 76.4069 76.4004 74.75 76.4004C73.0931 76.4004 71.75 77.7435 71.75 79.4004C71.75 81.0572 73.0931 82.4004 74.75 82.4004Z" fill="#009E94"/>
<path opacity="0.65" d="M34.75 82.4004C36.4069 82.4004 37.75 81.0572 37.75 79.4004C37.75 77.7435 36.4069 76.4004 34.75 76.4004C33.0931 76.4004 31.75 77.7435 31.75 79.4004C31.75 81.0572 33.0931 82.4004 34.75 82.4004Z" fill="#009E94"/>
<g opacity="0.3">
<path d="M54.75 35.4004L34.75 39.4004" stroke="#009E94" stroke-width="0.8"/>
<path d="M54.75 35.4004L74.75 39.4004" stroke="#009E94" stroke-width="0.8"/>
<path d="M78.75 59.4004L74.75 39.4004" stroke="#009E94" stroke-width="0.8"/>
<path d="M78.75 59.4004L74.75 79.4004" stroke="#009E94" stroke-width="0.8"/>
<path d="M54.75 83.4004L74.75 79.4004" stroke="#009E94" stroke-width="0.8"/>
<path d="M54.75 83.4004L34.75 79.4004" stroke="#009E94" stroke-width="0.8"/>
<path d="M30.75 59.4004L34.75 79.4004" stroke="#009E94" stroke-width="0.8"/>
<path d="M30.75 59.4004L34.75 39.4004" stroke="#009E94" stroke-width="0.8"/>
</g>
<g opacity="0.7">
<path d="M73.75 25.4004C69.75 17.4004 65.75 15.4004 65.75 10.4004C65.75 4.40039 70.75 0.400391 73.75 0.400391C76.75 0.400391 81.75 4.40039 81.75 10.4004C81.75 15.4004 77.75 17.4004 73.75 25.4004Z" fill="#F4B942" stroke="white" stroke-width="0.8"/>
<path d="M73.75 13.9004C75.683 13.9004 77.25 12.3334 77.25 10.4004C77.25 8.46739 75.683 6.90039 73.75 6.90039C71.817 6.90039 70.25 8.46739 70.25 10.4004C70.25 12.3334 71.817 13.9004 73.75 13.9004Z" fill="white"/>
</g>
<path d="M140.27 52.9102H130.695L129.378 57.4004H120.787L131.011 30.1992H140.177L150.4 57.4004H141.605L140.27 52.9102ZM138.507 47.0283L135.501 37.25L132.514 47.0283H138.507ZM169.512 30.1992H177.898V46.416C177.898 48.0241 177.645 49.5456 177.138 50.9805C176.643 52.403 175.857 53.6523 174.781 54.7285C173.717 55.7923 172.598 56.5407 171.423 56.9736C169.79 57.5798 167.829 57.8828 165.541 57.8828C164.217 57.8828 162.77 57.79 161.199 57.6045C159.641 57.4189 158.336 57.054 157.284 56.5098C156.233 55.9531 155.268 55.1676 154.39 54.1533C153.524 53.139 152.93 52.0938 152.608 51.0176C152.089 49.2858 151.829 47.752 151.829 46.416V30.1992H160.216V46.8057C160.216 48.29 160.624 49.4528 161.44 50.2939C162.269 51.1227 163.413 51.5371 164.873 51.5371C166.32 51.5371 167.452 51.1289 168.269 50.3125C169.097 49.4837 169.512 48.3148 169.512 46.8057V30.1992ZM183.576 57.4004V30.1992H197.585C200.183 30.1992 202.168 30.4219 203.541 30.8672C204.914 31.3125 206.021 32.1413 206.862 33.3535C207.703 34.5534 208.124 36.0192 208.124 37.751C208.124 39.2601 207.802 40.5651 207.159 41.666C206.516 42.7546 205.632 43.639 204.506 44.3193C203.788 44.7523 202.805 45.111 201.556 45.3955C202.558 45.7295 203.287 46.0635 203.745 46.3975C204.054 46.6201 204.5 47.0964 205.081 47.8262C205.675 48.556 206.071 49.1188 206.269 49.5146L210.332 57.4004H200.832L196.342 49.0879C195.773 48.0117 195.266 47.3128 194.82 46.9912C194.214 46.5706 193.528 46.3604 192.761 46.3604H192.019V57.4004H183.576ZM192.019 41.2207H195.562C195.946 41.2207 196.688 41.097 197.789 40.8496C198.346 40.7383 198.797 40.4538 199.144 39.9961C199.502 39.5384 199.682 39.0127 199.682 38.4189C199.682 37.5407 199.403 36.8665 198.847 36.3965C198.29 35.9264 197.245 35.6914 195.711 35.6914H192.019V41.2207ZM229.777 52.9102H220.203L218.886 57.4004H210.295L220.519 30.1992H229.685L239.908 57.4004H231.113L229.777 52.9102ZM228.015 47.0283L225.009 37.25L222.021 47.0283H228.015Z" fill="#0A1628"/>
<path d="M123.44 67.1992H134.499L138.767 83.75L143.016 67.1992H154.037V94.4004H147.172V73.6562L141.847 94.4004H135.631L130.324 73.6562V94.4004H123.44V67.1992ZM159.399 67.1992H181.925V73.0068H167.823V77.3301H180.904V82.8779H167.823V88.2402H182.333V94.4004H159.399V67.1992ZM186.99 67.1992H199.478C201.939 67.1992 203.924 67.5332 205.434 68.2012C206.955 68.8691 208.211 69.8278 209.2 71.0771C210.19 72.3265 210.907 73.7799 211.353 75.4375C211.798 77.0951 212.021 78.8516 212.021 80.707C212.021 83.6139 211.687 85.8714 211.019 87.4795C210.363 89.0752 209.448 90.4173 208.272 91.5059C207.097 92.582 205.836 93.2995 204.487 93.6582C202.644 94.153 200.974 94.4004 199.478 94.4004H186.99V67.1992ZM195.396 73.3594V88.2217H197.455C199.212 88.2217 200.461 88.0299 201.203 87.6465C201.945 87.2507 202.527 86.5703 202.947 85.6055C203.368 84.6283 203.578 83.0511 203.578 80.874C203.578 77.9919 203.108 76.0189 202.168 74.9551C201.228 73.8913 199.669 73.3594 197.492 73.3594H195.396Z" fill="#00C2B5"/>
<path opacity="0.35" d="M120.75 62.4004H366.75" stroke="#00C2B5" stroke-width="0.8"/>
<path d="M122.482 106.4V99.2422H123.43V105.556H126.955V106.4H122.482ZM127.8 102.914C127.8 101.726 128.119 100.797 128.757 100.126C129.395 99.4521 130.218 99.1152 131.228 99.1152C131.888 99.1152 132.484 99.2731 133.015 99.5889C133.545 99.9046 133.949 100.346 134.226 100.912C134.506 101.475 134.646 102.115 134.646 102.831C134.646 103.557 134.499 104.206 134.206 104.779C133.913 105.352 133.498 105.787 132.961 106.083C132.424 106.376 131.844 106.522 131.223 106.522C130.549 106.522 129.947 106.36 129.416 106.034C128.885 105.709 128.483 105.264 128.21 104.701C127.937 104.138 127.8 103.542 127.8 102.914ZM128.776 102.929C128.776 103.791 129.007 104.472 129.47 104.97C129.935 105.465 130.518 105.712 131.218 105.712C131.931 105.712 132.517 105.461 132.976 104.96C133.438 104.459 133.669 103.747 133.669 102.826C133.669 102.243 133.57 101.736 133.371 101.303C133.176 100.867 132.888 100.53 132.507 100.292C132.129 100.051 131.704 99.9307 131.232 99.9307C130.562 99.9307 129.984 100.162 129.499 100.624C129.017 101.083 128.776 101.851 128.776 102.929ZM135.842 106.4V99.2422H137.268L138.962 104.311C139.118 104.783 139.232 105.136 139.304 105.37C139.385 105.11 139.512 104.727 139.685 104.223L141.398 99.2422H142.673V106.4H141.76V100.409L139.68 106.4H138.825L136.755 100.307V106.4H135.842ZM144.162 106.4V99.2422H146.848C147.395 99.2422 147.832 99.3154 148.161 99.4619C148.493 99.6051 148.752 99.8281 148.938 100.131C149.126 100.43 149.221 100.744 149.221 101.073C149.221 101.379 149.138 101.667 148.972 101.938C148.806 102.208 148.555 102.426 148.22 102.592C148.653 102.719 148.985 102.935 149.216 103.241C149.45 103.547 149.567 103.909 149.567 104.325C149.567 104.66 149.496 104.973 149.353 105.263C149.213 105.549 149.038 105.771 148.83 105.927C148.622 106.083 148.36 106.202 148.044 106.283C147.731 106.361 147.347 106.4 146.892 106.4H144.162ZM145.109 102.25H146.657C147.077 102.25 147.378 102.222 147.561 102.167C147.801 102.095 147.982 101.977 148.103 101.811C148.226 101.645 148.288 101.436 148.288 101.186C148.288 100.948 148.231 100.74 148.117 100.561C148.003 100.378 147.84 100.255 147.629 100.189C147.417 100.121 147.054 100.087 146.54 100.087H145.109V102.25ZM145.109 105.556H146.892C147.198 105.556 147.412 105.544 147.536 105.521C147.754 105.482 147.937 105.417 148.083 105.326C148.229 105.235 148.35 105.103 148.444 104.931C148.539 104.755 148.586 104.553 148.586 104.325C148.586 104.058 148.518 103.827 148.381 103.632C148.244 103.433 148.054 103.295 147.81 103.217C147.569 103.135 147.22 103.095 146.765 103.095H145.109V105.556ZM150.085 106.4L152.834 99.2422H153.854L156.784 106.4H155.705L154.87 104.232H151.877L151.091 106.4H150.085ZM152.15 103.461H154.577L153.83 101.479C153.602 100.876 153.433 100.382 153.322 99.9941C153.231 100.453 153.103 100.909 152.937 101.361L152.15 103.461ZM157.556 106.4V99.2422H160.729C161.368 99.2422 161.853 99.3073 162.185 99.4375C162.517 99.5645 162.782 99.7907 162.98 100.116C163.179 100.442 163.278 100.801 163.278 101.195C163.278 101.703 163.114 102.131 162.785 102.479C162.456 102.828 161.949 103.049 161.262 103.144C161.512 103.264 161.703 103.383 161.833 103.5C162.11 103.754 162.372 104.071 162.619 104.452L163.864 106.4H162.673L161.726 104.911C161.449 104.481 161.221 104.153 161.042 103.925C160.863 103.697 160.702 103.537 160.559 103.446C160.419 103.355 160.275 103.292 160.129 103.256C160.021 103.233 159.846 103.222 159.602 103.222H158.503V106.4H157.556ZM158.503 102.401H160.539C160.972 102.401 161.311 102.357 161.555 102.27C161.799 102.178 161.984 102.035 162.111 101.84C162.238 101.641 162.302 101.426 162.302 101.195C162.302 100.857 162.178 100.578 161.931 100.36C161.687 100.142 161.299 100.033 160.769 100.033H158.503V102.401ZM164.768 106.4V99.2422H167.233C167.79 99.2422 168.215 99.2764 168.508 99.3447C168.918 99.4391 169.268 99.61 169.558 99.8574C169.935 100.176 170.217 100.585 170.402 101.083C170.591 101.578 170.686 102.144 170.686 102.782C170.686 103.326 170.622 103.808 170.495 104.228C170.368 104.647 170.205 104.996 170.007 105.272C169.808 105.546 169.59 105.762 169.353 105.922C169.118 106.078 168.833 106.197 168.498 106.278C168.166 106.36 167.784 106.4 167.351 106.4H164.768ZM165.715 105.556H167.243C167.715 105.556 168.085 105.512 168.352 105.424C168.622 105.336 168.837 105.212 168.996 105.053C169.221 104.828 169.395 104.527 169.519 104.149C169.646 103.769 169.709 103.308 169.709 102.768C169.709 102.019 169.585 101.444 169.338 101.044C169.094 100.64 168.796 100.37 168.444 100.233C168.19 100.136 167.782 100.087 167.219 100.087H165.715V105.556ZM172.385 103.29V102.289H173.386V103.29H172.385ZM175.236 106.4V99.2422H176.682V106.4H175.236ZM184.519 106.4H182.946L182.321 104.774H179.46L178.869 106.4H177.336L180.124 99.2422H181.652L184.519 106.4ZM181.857 103.568L180.871 100.912L179.904 103.568H181.857ZM187.795 104.101L188.688 104.022C188.731 104.381 188.828 104.675 188.981 104.906C189.138 105.134 189.379 105.32 189.704 105.463C190.03 105.603 190.396 105.673 190.803 105.673C191.164 105.673 191.483 105.619 191.76 105.512C192.036 105.404 192.242 105.258 192.375 105.072C192.512 104.883 192.58 104.678 192.58 104.457C192.58 104.232 192.515 104.037 192.385 103.871C192.255 103.702 192.04 103.56 191.74 103.446C191.548 103.371 191.123 103.256 190.466 103.1C189.808 102.94 189.348 102.79 189.084 102.65C188.742 102.471 188.487 102.25 188.317 101.986C188.151 101.719 188.068 101.422 188.068 101.093C188.068 100.731 188.171 100.395 188.376 100.082C188.581 99.7663 188.881 99.527 189.274 99.3643C189.668 99.2015 190.106 99.1201 190.588 99.1201C191.118 99.1201 191.586 99.2064 191.989 99.3789C192.396 99.5482 192.709 99.7988 192.927 100.131C193.145 100.463 193.262 100.839 193.278 101.259L192.37 101.327C192.321 100.875 192.155 100.533 191.872 100.302C191.592 100.071 191.177 99.9551 190.627 99.9551C190.054 99.9551 189.636 100.061 189.372 100.272C189.112 100.481 188.981 100.733 188.981 101.029C188.981 101.286 189.074 101.498 189.26 101.664C189.442 101.83 189.917 102.001 190.686 102.177C191.457 102.349 191.986 102.501 192.272 102.631C192.689 102.823 192.997 103.067 193.195 103.363C193.394 103.656 193.493 103.995 193.493 104.379C193.493 104.76 193.384 105.119 193.166 105.458C192.948 105.793 192.634 106.055 192.224 106.244C191.817 106.43 191.358 106.522 190.847 106.522C190.199 106.522 189.655 106.428 189.216 106.239C188.78 106.05 188.436 105.767 188.186 105.39C187.938 105.009 187.808 104.579 187.795 104.101ZM194.001 106.4L196.75 99.2422H197.771L200.7 106.4H199.621L198.786 104.232H195.793L195.007 106.4H194.001ZM196.066 103.461H198.493L197.746 101.479C197.518 100.876 197.349 100.382 197.238 99.9941C197.147 100.453 197.019 100.909 196.853 101.361L196.066 103.461ZM201.447 106.4V99.2422H202.419L206.179 104.862V99.2422H207.087V106.4H206.115L202.355 100.775V106.4H201.447ZM208.845 106.4V99.2422H209.792V106.4H208.845ZM213.288 106.4V100.087H210.93V99.2422H216.604V100.087H214.235V106.4H213.288ZM216.052 106.4L218.801 99.2422H219.821L222.751 106.4H221.672L220.837 104.232H217.844L217.058 106.4H216.052ZM218.117 103.461H220.544L219.797 101.479C219.569 100.876 219.4 100.382 219.289 99.9941C219.198 100.453 219.069 100.909 218.903 101.361L218.117 103.461ZM223.522 106.4V99.2422H226.696C227.334 99.2422 227.819 99.3073 228.151 99.4375C228.483 99.5645 228.749 99.7907 228.947 100.116C229.146 100.442 229.245 100.801 229.245 101.195C229.245 101.703 229.081 102.131 228.752 102.479C228.423 102.828 227.915 103.049 227.229 103.144C227.479 103.264 227.67 103.383 227.8 103.5C228.076 103.754 228.339 104.071 228.586 104.452L229.831 106.4H228.64L227.692 104.911C227.416 104.481 227.188 104.153 227.009 103.925C226.83 103.697 226.669 103.537 226.525 103.446C226.385 103.355 226.242 103.292 226.096 103.256C225.988 103.233 225.812 103.222 225.568 103.222H224.47V106.4H223.522ZM224.47 102.401H226.506C226.939 102.401 227.277 102.357 227.521 102.27C227.766 102.178 227.951 102.035 228.078 101.84C228.205 101.641 228.269 101.426 228.269 101.195C228.269 100.857 228.145 100.578 227.897 100.36C227.653 100.142 227.266 100.033 226.735 100.033H224.47V102.401ZM230.896 106.4V99.2422H231.843V106.4H230.896ZM232.731 106.4L235.48 99.2422H236.501L239.431 106.4H238.352L237.517 104.232H234.523L233.737 106.4H232.731ZM234.797 103.461H237.224L236.477 101.479C236.249 100.876 236.079 100.382 235.969 99.9941C235.878 100.453 235.749 100.909 235.583 101.361L234.797 103.461Z" fill="#6B8FA8"/>
<defs>
<filter id="filter0_f_2225_263" x="47.25" y="27.9004" width="15" height="15" filterUnits="userSpaceOnUse" color-interpolation-filters="sRGB">
<feFlood flood-opacity="0" result="BackgroundImageFix"/>
<feBlend mode="normal" in="SourceGraphic" in2="BackgroundImageFix" result="shape"/>
<feGaussianBlur stdDeviation="1.5" result="effect1_foregroundBlur_2225_263"/>
</filter>
<filter id="filter1_f_2225_263" x="71.25" y="51.9004" width="15" height="15" filterUnits="userSpaceOnUse" color-interpolation-filters="sRGB">
<feFlood flood-opacity="0" result="BackgroundImageFix"/>
<feBlend mode="normal" in="SourceGraphic" in2="BackgroundImageFix" result="shape"/>
<feGaussianBlur stdDeviation="1.5" result="effect1_foregroundBlur_2225_263"/>
</filter>
<filter id="filter2_f_2225_263" x="47.25" y="75.9004" width="15" height="15" filterUnits="userSpaceOnUse" color-interpolation-filters="sRGB">
<feFlood flood-opacity="0" result="BackgroundImageFix"/>
<feBlend mode="normal" in="SourceGraphic" in2="BackgroundImageFix" result="shape"/>
<feGaussianBlur stdDeviation="1.5" result="effect1_foregroundBlur_2225_263"/>
</filter>
<filter id="filter3_f_2225_263" x="23.25" y="51.9004" width="15" height="15" filterUnits="userSpaceOnUse" color-interpolation-filters="sRGB">
<feFlood flood-opacity="0" result="BackgroundImageFix"/>
<feBlend mode="normal" in="SourceGraphic" in2="BackgroundImageFix" result="shape"/>
<feGaussianBlur stdDeviation="1.5" result="effect1_foregroundBlur_2225_263"/>
</filter>
<linearGradient id="paint0_linear_2225_263" x1="0.75" y1="5.40039" x2="108.75" y2="113.4" gradientUnits="userSpaceOnUse">
<stop stop-color="#E8F7F6"/>
<stop offset="1" stop-color="#D0F0ED"/>
</linearGradient>
<linearGradient id="paint1_linear_2225_263" x1="36.75" y1="53.4004" x2="43.95" y2="75.0004" gradientUnits="userSpaceOnUse">
<stop stop-color="#00C2B5"/>
<stop offset="1" stop-color="#009E94"/>
</linearGradient>
<linearGradient id="paint2_linear_2225_263" x1="48.75" y1="41.4004" x2="70.35" y2="48.6004" gradientUnits="userSpaceOnUse">
<stop stop-color="#00C2B5"/>
<stop offset="1" stop-color="#009E94"/>
</linearGradient>
</defs>
</svg>
